<svg id="noun_Certificate_2390338" xmlns="http://www.w3.org/2000/svg" width="8.318" height="7.477" viewBox="0 0 8.318 7.477">
  <defs>
    <style>
      .cls-1 {
        fill: #71a033;
      }
    </style>
  </defs>
  <g id="Group_18231" data-name="Group 18231" transform="translate(0 0)">
    <g id="Group_18225" data-name="Group 18225">
      <path id="Path_10736" data-name="Path 10736" class="cls-1" d="M7.753,1.516H.567A.553.553,0,0,0,0,2.053V7.1a.554.554,0,0,0,.567.538H5.142a.694.694,0,0,1-.2-.132.778.778,0,0,1-.215-.619V6.88s0,0,0,0a.811.811,0,0,1-.317-.592.848.848,0,0,1,.321-.6.768.768,0,0,1,.215-.629.887.887,0,0,1,.664-.206.793.793,0,0,1,1.251,0,.763.763,0,0,1,.879.824v.008s0,0,0,0a.708.708,0,0,1,0,1.183l0,0v.015a.721.721,0,0,1-.412.745h.43A.553.553,0,0,0,8.318,7.1V2.053A.551.551,0,0,0,7.753,1.516ZM3.31,6.738H1.48a.165.165,0,1,1,0-.329H3.31a.165.165,0,1,1,0,.329Zm.98-.884H1.48a.165.165,0,1,1,0-.329H4.29a.165.165,0,1,1,0,.329ZM6.643,4.514H1.48a.165.165,0,1,1,0-.329H6.643a.165.165,0,1,1,0,.329Zm0-.884H1.48a.165.165,0,1,1,0-.329H6.643a.165.165,0,1,1,0,.329Zm0-.884H1.48a.165.165,0,1,1,0-.329H6.643a.165.165,0,1,1,0,.329Z" transform="translate(0 -1.516)"/>
    </g>
    <g id="Group_18228" data-name="Group 18228" transform="translate(4.727 3.295)">
      <g id="Group_18226" data-name="Group 18226" transform="translate(1.138 1.14)">
        <path id="Path_10737" data-name="Path 10737" class="cls-1" d="M34.65,28.835a.35.35,0,1,1-.349-.349A.351.351,0,0,1,34.65,28.835Z" transform="translate(-33.95 -28.486)"/>
      </g>
      <g id="Group_18227" data-name="Group 18227">
        <path id="Path_10738" data-name="Path 10738" class="cls-1" d="M30.1,22.956c-.043-.1.051-.387-.126-.564s-.47-.085-.564-.126-.236-.311-.489-.311-.395.273-.489.311-.388-.05-.564.126-.084.457-.126.566-.311.236-.311.487.268.4.311.489-.05.388.126.564.46.085.564.127.233.309.489.309.4-.274.489-.309.4.039.564-.127.083-.459.126-.564.311-.234.311-.489S30.139,23.052,30.1,22.956Zm-1.178,1.189a.7.7,0,1,1,.7-.7A.7.7,0,0,1,28.919,24.145Z" transform="translate(-27.43 -21.956)"/>
      </g>
    </g>
    <g id="Group_18230" data-name="Group 18230" transform="translate(4.915 6.181)">
      <g id="Group_18229" data-name="Group 18229">
        <path id="Path_10739" data-name="Path 10739" class="cls-1" d="M31.056,40.3a.179.179,0,0,1-.187.037l-1.06-.424-1.061.424a.176.176,0,0,1-.23-.22l.372-1.065a1.286,1.286,0,0,0,.288.021.862.862,0,0,0,.632.321.877.877,0,0,0,.63-.321,1.3,1.3,0,0,0,.29-.021l.37,1.065A.174.174,0,0,1,31.056,40.3Z" transform="translate(-28.508 -39.056)"/>
      </g>
    </g>
  </g>
</svg>
