<svg id="attach_file-24px" xmlns="http://www.w3.org/2000/svg" width="10" height="10" viewBox="0 0 10 10">
  <defs>
    <style>
      .cls-1 {
        fill: none;
      }

      .cls-2 {
        fill: #71a033;
      }
    </style>
  </defs>
  <path id="Path_10776" data-name="Path 10776" class="cls-1" d="M0,0H10V10H0Z"/>
  <path id="Path_10777" data-name="Path 10777" class="cls-2" d="M10.955,3.4V7.805a1.715,1.715,0,0,1-1.5,1.729A1.663,1.663,0,0,1,7.624,7.876V2.726a1.081,1.081,0,0,1,.933-1.1A1.041,1.041,0,0,1,9.706,2.667V7.043a.416.416,0,1,1-.833,0V3.4a.312.312,0,1,0-.624,0V6.984a1.081,1.081,0,0,0,.933,1.1A1.041,1.041,0,0,0,10.33,7.043v-4.3a1.715,1.715,0,0,0-1.5-1.729A1.665,1.665,0,0,0,7,2.667V7.78A2.357,2.357,0,0,0,9.065,10.16a2.293,2.293,0,0,0,2.514-2.284V3.4a.312.312,0,1,0-.624,0Z" transform="translate(-4.081 -0.584)"/>
</svg>
